<svg width="50" height="50" viewBox="0 0 50 50" fill="none" xmlns="http://www.w3.org/2000/svg">
    <g clip-path="url(#clip0)">
        <path d="M3.07414 0.000862069C2.68889 0.000522294 2.30735 0.0760662 1.95129 0.223181C1.59524 0.370295 1.27165 0.586099 0.998998 0.858271C0.726346 1.13044 0.509972 1.45365 0.36223 1.80945C0.214488 2.16524 0.138271 2.54665 0.137932 2.9319V47.069C0.138158 47.4543 0.214291 47.8358 0.361982 48.1917C0.509674 48.5476 0.72603 48.8709 0.998693 49.1431C1.27136 49.4154 1.59499 49.6313 1.95109 49.7785C2.3072 49.9256 2.68882 50.0012 3.07414 50.0009H47.2845C47.6698 50.0012 48.0515 49.9256 48.4077 49.7785C48.7638 49.6313 49.0875 49.4155 49.3602 49.1432C49.633 48.8709 49.8494 48.5476 49.9972 48.1917C50.145 47.8358 50.2212 47.4543 50.2215 47.069V2.93103C50.2215 1.31293 48.906 0 47.2845 0L3.07414 0.000862069Z"
              fill="url(#paint0_linear)"/>
        <path fill-rule="evenodd" clip-rule="evenodd"
              d="M3.07414 0.000862069C2.68889 0.000522294 2.30735 0.0760662 1.95129 0.223181C1.59524 0.370295 1.27165 0.586099 0.998998 0.858271C0.726346 1.13044 0.509972 1.45365 0.36223 1.80945C0.214488 2.16524 0.138271 2.54665 0.137932 2.9319V47.069C0.138158 47.4543 0.214291 47.8358 0.361982 48.1917C0.509674 48.5476 0.72603 48.8709 0.998693 49.1431C1.27136 49.4154 1.59499 49.6313 1.95109 49.7785C2.3072 49.9256 2.68882 50.0012 3.07414 50.0009H47.2845C47.6698 50.0012 48.0515 49.9256 48.4077 49.7785C48.7638 49.6313 49.0875 49.4155 49.3602 49.1432C49.633 48.8709 49.8494 48.5476 49.9972 48.1917C50.145 47.8358 50.2212 47.4543 50.2215 47.069V2.93103C50.2215 1.31293 48.906 0 47.2845 0L3.07414 0.000862069Z"
              fill="url(#paint1_linear)"/>
        <path fill-rule="evenodd" clip-rule="evenodd"
              d="M25.1793 44.5C14.3328 44.5 5.50862 35.6914 5.50862 24.8621C5.50862 14.0345 14.3328 5.22414 25.181 5.22414C36.0267 5.22414 44.8526 14.0345 44.8526 24.8629C44.8526 35.6922 36.0267 44.5009 25.1802 44.5009"
              fill="#FABE00"/>
        <path fill-rule="evenodd" clip-rule="evenodd"
              d="M25.1983 2.63965C37.4914 2.63965 47.4569 12.5896 47.4569 24.8621C47.4569 37.1353 37.4914 47.0836 25.1983 47.0836C12.9043 47.0836 2.9388 37.1353 2.9388 24.8621C2.9388 12.5896 12.9043 2.63965 25.1974 2.63965H25.1983ZM25.1974 5.87499C14.7112 5.87499 6.18018 14.3922 6.18018 24.8621C6.18018 35.331 14.7112 43.8483 25.1974 43.8483C35.6853 43.8483 44.2164 35.331 44.2164 24.8621C44.2164 14.3931 35.6853 5.87499 25.1983 5.87499"
              fill="white"/>
        <path fill-rule="evenodd" clip-rule="evenodd"
              d="M22.2491 26.6897V32.4897C22.2491 32.5586 22.2991 32.6164 22.3681 32.6241C23.1922 32.7071 24.02 32.7477 24.8483 32.7457C26.4284 32.7457 27.7052 32.5198 28.6767 32.069C29.6474 31.6181 30.1336 30.7828 30.1336 29.5655C30.1336 28.4828 29.7267 27.7103 28.9138 27.2483C28.1009 26.7862 26.9371 26.5543 25.4241 26.5543H22.3836C22.348 26.5543 22.3137 26.5685 22.2885 26.5937C22.2633 26.6189 22.2491 26.654 22.2491 26.6897ZM22.2405 21.7474C22.2405 21.8216 22.3009 21.8819 22.3759 21.8819L24.7793 21.8948C26.4284 21.8948 27.6078 21.6836 28.3181 21.2603C29.0276 20.8379 29.3828 20.1569 29.3828 19.2198C29.3828 18.2595 29.0164 17.5853 28.2836 17.1966C27.5509 16.8078 26.4733 16.6129 25.0543 16.6129C24.5957 16.6129 24.2491 16.6198 23.7233 16.6302C23.2465 16.6414 22.744 16.6526 22.3612 16.6905C22.3281 16.6937 22.2973 16.7092 22.275 16.7339C22.2526 16.7587 22.2404 16.7908 22.2405 16.8241V21.7474ZM24.9931 37.4888C23.7013 37.4888 22.4098 37.4474 21.1207 37.3647C19.8216 37.2845 18.6078 37.0974 17.2069 36.8043C17.1763 36.7977 17.1489 36.7808 17.1292 36.7565C17.1094 36.7323 17.0985 36.702 17.0983 36.6707V13.1483C17.0983 13.0828 17.1448 13.0259 17.2095 13.0138C18.3569 12.8004 19.5149 12.6482 20.6784 12.5578C21.8781 12.4561 23.0814 12.4032 24.2853 12.3991C25.8422 12.3991 27.2759 12.5112 28.5853 12.7353C29.8957 12.9595 31.0215 13.3414 31.9655 13.8828C32.9095 14.4259 33.6465 15.1379 34.1784 16.0207C34.7086 16.9043 34.9741 17.9948 34.9741 19.2897C34.9741 21.1638 34.1069 22.6595 32.3724 23.7759C32.3513 23.7893 32.3342 23.8083 32.3232 23.8308C32.3122 23.8533 32.3075 23.8784 32.3099 23.9034C32.3122 23.9284 32.3213 23.9522 32.3363 23.9723C32.3513 23.9924 32.3716 24.0079 32.3948 24.0172C33.8155 24.5966 34.7931 25.3647 35.3284 26.3216C35.8948 27.3353 36.1776 28.4767 36.1776 29.7491C36.1776 32.3181 35.2397 34.2491 33.3638 35.5448C31.4879 36.8414 28.6974 37.4888 24.9931 37.4888Z"
              fill="#14141E"/>
    </g>
    <defs>
        <linearGradient id="paint0_linear" x1="25.1797" y1="50.0009" x2="25.1797" y2="0" gradientUnits="userSpaceOnUse">
            <stop stop-color="#B30000"/>
            <stop offset="1" stop-color="#EF0000"/>
        </linearGradient>
        <linearGradient id="paint1_linear" x1="25.1797" y1="50.0009" x2="25.1797" y2="0" gradientUnits="userSpaceOnUse">
            <stop stop-color="#B30000"/>
            <stop offset="1" stop-color="#EF0000"/>
        </linearGradient>
        <clipPath id="clip0">
            <rect width="177" height="50" fill="white"/>
        </clipPath>
    </defs>
</svg>
